# xmcd CD database file
#
# Track frame offsets:
#	150
#	20938
#	43603
#	65075
#	94103
#	118350
#	135485
#	158413
#	181243
#
# Disc length: 2775 seconds
#
# Revision: 2
# Processed by: cddbd v1.5.2PL0 Copyright (c) Steve Scherf et al.
# Submitted via: CDex 1.70beta2
#
DISCID=7a0ad509
DTITLE=錦城薫 - アベーナ
DYEAR=1988
DGENRE=Pop
TTITLE0=赤い華
TTITLE1=花泥棒
TTITLE2=Baroque
TTITLE3=愛のとりこ
TTITLE4=Madrigal
TTITLE5=浪漫
TTITLE6=Sub Rosa
TTITLE7=輪舞
TTITLE8=蝶になったら
EXTD=YEAR: 1988
EXTT0=
EXTT1=
EXTT2=
EXTT3=
EXTT4=
EXTT5=
EXTT6=
EXTT7=
EXTT8=
PLAYORDER=
